<?xml version="1.0" encoding="UTF-8" standalone="no"?>
<svg
   xmlns:dc="http://purl.org/dc/elements/1.1/"
   xmlns:cc="http://creativecommons.org/ns#"
   xmlns:rdf="http://www.w3.org/1999/02/22-rdf-syntax-ns#"
   xmlns:svg="http://www.w3.org/2000/svg"
   xmlns="http://www.w3.org/2000/svg"
   xmlns:sodipodi="http://sodipodi.sourceforge.net/DTD/sodipodi-0.dtd"
   xmlns:inkscape="http://www.inkscape.org/namespaces/inkscape"
   width="559.99994"
   height="560"
   viewBox="0 0 559.99994 560"
   version="1.1"
   id="svg22"
   sodipodi:docname="button_04.svg"
   inkscape:version="0.92.3 (2405546, 2018-03-11)">
  <metadata
     id="metadata28">
    <rdf:RDF>
      <cc:Work
         rdf:about="">
        <dc:format>image/svg+xml</dc:format>
        <dc:type
           rdf:resource="http://purl.org/dc/dcmitype/StillImage" />
        <dc:title>Produce by Acme CAD Converter</dc:title>
      </cc:Work>
    </rdf:RDF>
  </metadata>
  <defs
     id="defs26" />
  <sodipodi:namedview
     pagecolor="#ffffff"
     bordercolor="#666666"
     borderopacity="1"
     objecttolerance="10"
     gridtolerance="10"
     guidetolerance="10"
     inkscape:pageopacity="0"
     inkscape:pageshadow="2"
     inkscape:window-width="1600"
     inkscape:window-height="839"
     id="namedview24"
     showgrid="false"
     inkscape:snap-object-midpoints="true"
     fit-margin-top="0"
     fit-margin-left="0"
     fit-margin-right="0"
     fit-margin-bottom="0"
     inkscape:zoom="0.78666667"
     inkscape:cx="217.07535"
     inkscape:cy="286.69034"
     inkscape:window-x="0"
     inkscape:window-y="0"
     inkscape:window-maximized="1"
     inkscape:current-layer="svg22" />
  <title
     id="title2">Produce by Acme CAD Converter</title>
  <desc
     id="desc4">Produce by Acme CAD Converter</desc>
  <polyline
     points="400,300 400,300"
     style="fill:none;stroke:#000000;stroke-width:3;stroke-miterlimit:4;stroke-dasharray:none"
     id="polyline6"
     transform="translate(-120.00014,-20.000904)" />
  <polyline
     points="400,300 400,300"
     style="fill:none;stroke:#000000;stroke-width:3;stroke-miterlimit:4;stroke-dasharray:none"
     id="polyline8"
     transform="translate(-120.00014,-20.000904)" />
  <polyline
     points="400,51.98 412.3,52.28 424.7,53.17 436.9,54.76 449.11,56.85 461.21,59.62 473.12,63 484.82,66.96 496.33,71.43 507.64,76.49 518.55,82.14 529.27,88.39 539.68,95.04 549.7,102.28 559.42,110.02 568.65,118.15 577.58,126.79 585.91,135.91 593.85,145.34 601.39,155.16 608.33,165.38 614.78,175.99 620.73,186.81 626.09,198.02 630.85,209.33 635.12,221.03 638.69,232.84 641.77,244.74 644.25,256.94 646.03,269.15 647.32,281.45 647.92,293.75 647.92,306.15 647.32,318.55 646.03,330.85 644.25,343.06 641.77,355.16 638.69,367.16 635.12,378.97 630.85,390.58 626.09,401.98 620.73,413.1 614.78,424.01 608.33,434.52 601.39,444.74 593.85,454.56 585.91,464.09 577.58,473.12 568.65,481.75 559.42,489.98 549.7,497.72 539.68,504.86 529.27,511.61 518.55,517.76 507.64,523.41 496.33,528.47 484.82,533.04 473.12,537 461.21,540.28 449.11,543.06 436.9,545.24 424.7,546.73 412.3,547.72 400,548.02 387.6,547.72 375.3,546.73 363,545.24 350.79,543.06 338.79,540.28 326.88,537 315.18,533.04 303.67,528.47 292.36,523.41 281.35,517.76 270.63,511.61 260.32,504.86 250.2,497.72 240.58,489.98 231.25,481.75 222.42,473.12 213.99,464.09 206.05,454.56 198.61,444.74 191.67,434.52 185.22,424.01 179.27,413.1 173.91,401.98 169.15,390.58 164.88,378.97 161.21,367.16 158.23,355.16 155.75,343.06 153.87,330.85 152.68,318.55 152.08,306.15 152.08,293.75 152.68,281.45 153.87,269.15 155.75,256.94 158.23,244.74 161.21,232.84 164.88,221.03 169.15,209.33 173.91,198.02 179.27,186.81 185.22,175.99 191.67,165.38 198.61,155.16 206.05,145.34 213.99,135.91 222.42,126.79 231.25,118.15 240.58,110.02 250.2,102.28 260.32,95.04 270.63,88.39 281.35,82.14 292.36,76.49 303.67,71.43 315.18,66.96 326.88,63 338.79,59.62 350.79,56.85 363,54.76 375.3,53.17 387.6,52.28 400,51.98 400,51.98"
     style="fill:none;stroke:#000000;stroke-width:3;stroke-miterlimit:4;stroke-dasharray:none"
     id="polyline10"
     transform="translate(-120.00014,-20.000904)" />
  <polyline
     points="400,71.83 412.3,72.12 424.7,73.12 436.9,74.8 449.01,77.18 461.01,80.16 472.82,83.73 484.42,88 495.83,92.86 506.85,98.41 517.66,104.46 528.08,111.11 538.1,118.35 547.72,126.09 556.94,134.33 565.67,143.06 573.91,152.28 581.65,161.9 588.89,171.92 595.54,182.34 601.59,193.06 607.04,204.17 611.9,215.48 616.17,227.08 619.84,238.89 622.82,250.89 625.2,263.1 626.79,275.3 627.78,287.6 628.17,300 627.78,312.3 626.79,324.6 625.2,336.9 622.82,349.01 619.84,361.01 616.17,372.82 611.9,384.42 607.04,395.83 601.59,406.85 595.54,417.66 588.89,427.98 581.65,438.1 573.91,447.72 565.67,456.85 556.94,465.67 547.72,473.91 538.1,481.65 528.08,488.79 517.66,495.54 506.85,501.59 495.83,507.04 484.42,511.9 472.82,516.17 461.01,519.84 449.01,522.82 436.9,525.1 424.7,526.79 412.3,527.78 400,528.17 387.6,527.78 375.3,526.79 363.1,525.1 350.89,522.82 338.99,519.84 327.08,516.17 315.58,511.9 304.17,507.04 293.06,501.59 282.34,495.54 271.92,488.79 261.9,481.65 252.28,473.91 243.06,465.67 234.33,456.85 226.09,447.72 218.35,438.1 211.11,427.98 204.46,417.66 198.41,406.85 192.86,395.83 188,384.42 183.73,372.82 180.16,361.01 177.18,349.01 174.8,336.9 173.12,324.6 172.12,312.3 171.83,300 172.12,287.6 173.12,275.3 174.8,263.1 177.18,250.89 180.16,238.89 183.73,227.08 188,215.48 192.86,204.17 198.41,193.06 204.46,182.34 211.11,171.92 218.35,161.9 226.09,152.28 234.33,143.06 243.06,134.33 252.28,126.09 261.9,118.35 271.92,111.11 282.34,104.46 293.06,98.41 304.17,92.86 315.58,88 327.08,83.73 338.99,80.16 350.89,77.18 363.1,74.8 375.3,73.12 387.6,72.12 400,71.83 400,71.83"
     style="fill:none;stroke:#000000;stroke-width:3;stroke-miterlimit:4;stroke-dasharray:none"
     id="polyline12"
     transform="translate(-120.00014,-20.000904)" />
  <polyline
     points="400,101.59 412.3,101.98 424.6,103.08 436.81,105.06 448.81,107.64 460.71,111.11 472.32,115.28 483.73,120.04 494.74,125.6 505.36,131.85 515.58,138.69 525.4,146.23 534.72,154.37 543.55,163 551.79,172.22 559.42,181.85 566.47,191.96 572.82,202.58 578.57,213.49 583.63,224.8 587.9,236.31 591.47,248.12 594.35,260.12 596.43,272.32 597.82,284.52 598.41,296.92 598.21,309.23 597.22,321.53 595.54,333.73 593.06,345.83 589.78,357.74 585.81,369.44 581.15,380.85 575.79,391.96 569.74,402.78 563,413.1 555.65,423.02 547.72,432.44 539.19,441.37 530.16,449.7 520.54,457.54 510.52,464.78 500.1,471.33 489.19,477.18 478.08,482.44 466.57,486.9 454.76,490.67 442.86,493.75 430.75,496.03 418.45,497.52 406.15,498.31 393.85,498.31 381.45,497.52 369.25,496.03 357.14,493.75 345.14,490.67 333.43,486.9 321.92,482.44 310.71,477.18 299.9,471.33 289.38,464.78 279.37,457.54 269.84,449.7 260.81,441.37 252.28,432.44 244.35,423.02 237,413.1 230.26,402.78 224.21,391.96 218.85,380.85 214.09,369.44 210.22,357.74 206.94,345.83 204.46,333.73 202.78,321.53 201.79,309.23 201.59,296.92 202.18,284.52 203.47,272.32 205.65,260.12 208.43,248.12 212.1,236.31 216.37,224.8 221.43,213.49 227.18,202.58 233.53,191.96 240.58,181.85 248.21,172.22 256.45,163 265.28,154.37 274.6,146.23 284.33,138.69 294.64,131.85 305.26,125.6 316.27,120.04 327.68,115.28 339.29,111.11 351.09,107.64 363.19,105.06 375.4,103.08 387.6,101.98 400,101.59 400,101.59"
     style="fill:none;stroke:#000000;stroke-width:3;stroke-miterlimit:4;stroke-dasharray:none"
     id="polyline14"
     transform="translate(-120.00014,-20.000904)" />
  <polyline
     points="400,141.27 412.4,141.77 424.8,143.15 437,145.63 449.01,149.01 460.71,153.37 472.02,158.53 482.94,164.68 493.25,171.53 503.08,179.27 512.2,187.7 520.63,196.92 528.37,206.65 535.32,217.06 541.37,227.88 546.63,239.19 550.99,250.89 554.37,262.9 556.75,275.1 558.23,287.5 558.73,300 558.23,312.4 556.75,324.8 554.37,337 550.99,349.01 546.63,360.71 541.37,372.02 535.32,382.94 528.37,393.25 520.63,403.08 512.2,412.2 503.08,420.63 493.25,428.37 482.94,435.32 472.02,441.37 460.71,446.63 449.01,450.89 437,454.37 424.8,456.75 412.4,458.23 400,458.73 387.5,458.23 375.2,456.75 362.9,454.37 350.89,450.89 339.29,446.63 327.88,441.37 317.06,435.32 306.65,428.37 296.92,420.63 287.7,412.2 279.27,403.08 271.53,393.25 264.68,382.94 258.53,372.02 253.37,360.71 249.01,349.01 245.63,337 243.25,324.8 241.77,312.4 241.27,300 241.77,287.5 243.25,275.1 245.63,262.9 249.01,250.89 253.37,239.19 258.53,227.88 264.68,217.06 271.53,206.65 279.27,196.92 287.7,187.7 296.92,179.27 306.65,171.53 317.06,164.68 327.88,158.53 339.29,153.37 350.89,149.01 362.9,145.63 375.2,143.15 387.5,141.77 400,141.27 400,141.27"
     style="fill:none;stroke:#000000;stroke-width:3;stroke-miterlimit:4;stroke-dasharray:none"
     id="polyline16"
     transform="translate(-120.00014,-20.000904)" />
  <polyline
     points="400,190.87 412.4,191.57 424.7,193.65 436.61,197.22 448.12,202.08 459.03,208.13 469.05,215.48 478.27,223.91 486.41,233.33 493.45,243.65 499.21,254.66 503.77,266.27 506.94,278.27 508.73,290.67 509.03,303.08 508.04,315.48 505.56,327.68 501.69,339.58 496.53,350.89 490.08,361.61 482.44,371.43 473.81,380.36 464.09,388.29 453.67,395.04 442.46,400.5 430.75,404.66 418.55,407.54 406.25,408.93 393.75,408.93 381.35,407.54 369.25,404.66 357.54,400.5 346.33,395.04 335.81,388.29 326.19,380.36 317.56,371.43 309.92,361.61 303.47,350.89 298.31,339.58 294.44,327.68 291.96,315.48 290.87,303.08 291.27,290.67 293.06,278.27 296.23,266.27 300.69,254.66 306.55,243.65 313.59,233.33 321.73,223.91 330.95,215.48 340.97,208.13 351.79,202.08 363.29,197.22 375.3,193.65 387.5,191.57 400,190.87 400,190.87"
     style="fill:none;stroke:#000000;stroke-width:3;stroke-miterlimit:4;stroke-dasharray:none"
     id="polyline18"
     transform="translate(-120.00014,-20.000904)" />
  <polyline
     points="400,250.4 408.63,251.09 416.96,253.37 424.8,257.04 431.85,262 438,268.06 442.96,275.2 446.63,283.04 448.81,291.37 449.6,300 448.81,308.63 446.63,316.96 442.96,324.8 438,331.85 431.85,338 424.8,342.96 416.96,346.63 408.63,348.81 400,349.6 391.37,348.81 383.04,346.63 375.2,342.96 368.06,338 362,331.85 357.04,324.8 353.37,316.96 351.09,308.63 350.4,300 351.09,291.37 353.37,283.04 357.04,275.2 362,268.06 368.06,262 375.2,257.04 383.04,253.37 391.37,251.09 400,250.4 400,250.4"
     style="fill:none;stroke:#000000;stroke-width:3;stroke-miterlimit:4;stroke-dasharray:none"
     id="polyline20"
     transform="translate(-120.00014,-20.000904)" />
  <ellipse
     style="opacity:1;fill:none;fill-opacity:1;stroke:#000000;stroke-width:5.00814104;stroke-miterlimit:4;stroke-dasharray:40.06512648, 10.01628162, 5.00814081, 10.01628162;stroke-dashoffset:0;stroke-opacity:1"
     id="path827"
     cx="279.99997"
     cy="280"
     rx="277.49591"
     ry="277.49594" />
</svg>
