<?xml version="1.0" encoding="UTF-8" standalone="no"?>
<svg
   xmlns:dc="http://purl.org/dc/elements/1.1/"
   xmlns:cc="http://creativecommons.org/ns#"
   xmlns:rdf="http://www.w3.org/1999/02/22-rdf-syntax-ns#"
   xmlns:svg="http://www.w3.org/2000/svg"
   xmlns="http://www.w3.org/2000/svg"
   xmlns:sodipodi="http://sodipodi.sourceforge.net/DTD/sodipodi-0.dtd"
   xmlns:inkscape="http://www.inkscape.org/namespaces/inkscape"
   inkscape:version="1.0 (4035a4f, 2020-05-01)"
   sodipodi:docname="button_03.svg"
   id="svg126"
   version="1.1"
   viewBox="0 0 559.99994 560"
   height="560"
   width="559.99994">
  <metadata
     id="metadata132">
    <rdf:RDF>
      <cc:Work
         rdf:about="">
        <dc:format>image/svg+xml</dc:format>
        <dc:type
           rdf:resource="http://purl.org/dc/dcmitype/StillImage" />
        <dc:title>Produce by Acme CAD Converter</dc:title>
      </cc:Work>
    </rdf:RDF>
  </metadata>
  <defs
     id="defs130" />
  <sodipodi:namedview
     inkscape:snap-others="false"
     inkscape:document-rotation="0"
     inkscape:current-layer="svg126"
     inkscape:window-maximized="1"
     inkscape:window-y="0"
     inkscape:window-x="0"
     inkscape:cy="329.38905"
     inkscape:cx="356.46459"
     inkscape:zoom="0.78666667"
     fit-margin-bottom="0"
     fit-margin-right="0"
     fit-margin-left="0"
     fit-margin-top="0"
     inkscape:snap-object-midpoints="true"
     showgrid="false"
     id="namedview128"
     inkscape:window-height="835"
     inkscape:window-width="1600"
     inkscape:pageshadow="2"
     inkscape:pageopacity="0"
     guidetolerance="10"
     gridtolerance="10"
     objecttolerance="10"
     borderopacity="1"
     bordercolor="#666666"
     pagecolor="#ffffff" />
  <title
     id="title2">Produce by Acme CAD Converter</title>
  <desc
     id="desc4">Produce by Acme CAD Converter</desc>
  <path
     transform="scale(-1,1)"
     inkscape:transform-center-y="2.3025946"
     inkscape:transform-center-x="0.53331027"
     d="m -182.08223,517.42469 -5.05833,-39.75074 -99.64949,57.19093 11.54706,-38.37152 -114.29599,11.71542 26.15587,-30.35752 -109.17967,-35.78579 36.24209,-17.09442 -85.18519,-77.09933 40.06172,-0.87554 -46.46143,-105.08168 36.95432,15.49472 0.29595,-114.89445 27.45717,29.18581 47.00215,-104.840941 13.21244,37.830411 85.58125,-76.659474 -3.31685,39.933781 109.36258,-35.222882 -19.27263,35.132242 114.23412,12.304062 -31.89598,24.256021 99.353546,57.70352 -39.004244,9.18571 67.293845,93.12552 -39.368315,-7.47289 23.598425,112.44527 -32.925246,-22.83937 -24.177376,112.32221 -20.789105,-34.2567 z"
     inkscape:randomized="0"
     inkscape:rounded="0"
     inkscape:flatsided="false"
     sodipodi:arg2="1.1509112"
     sodipodi:arg1="1.1963114"
     sodipodi:r2="216.65448"
     sodipodi:r1="255.2774"
     sodipodi:cy="279.83899"
     sodipodi:cx="-275.46097"
     sodipodi:sides="15"
     id="path895"
     style="fill:#63be63;stroke:#080400;stroke-width:8;stroke-miterlimit:4;stroke-dasharray:64, 16, 8, 16;stroke-dashoffset:0"
     sodipodi:type="star" />
  <path
     inkscape:transform-center-y="-0.80121387"
     inkscape:transform-center-x="1.2612461"
     d="m 326.90134,470.57973 -27.87813,-28.57412 -66.31155,28.30218 -11.40579,-38.25674 -71.86864,-5.75617 7.67946,-39.1752 -60.961496,-38.49586 25.005446,-31.1191 -36.088799,-62.41661 36.602989,-15.93398 -2.9486,-72.03846 39.81523,2.90142 30.86708,-65.15718 33.90628,21.07214 57.6115,-43.349168 20.2298,34.415488 71.15781,-11.61039 1.91893,39.87466 68.40273,22.7882 -16.83155,36.19903 49.9774,51.96628 -31.72613,24.23064 20.10286,69.23951 -39.35263,6.71129 -14.37701,70.65081 -37.96391,-12.34552 z"
     inkscape:randomized="0"
     inkscape:rounded="0"
     inkscape:flatsided="false"
     sodipodi:arg2="1.4565284"
     sodipodi:arg1="1.3320225"
     sodipodi:r2="163.70068"
     sodipodi:r1="196.79044"
     sodipodi:cy="279.3725"
     sodipodi:cx="280.35815"
     sodipodi:sides="13"
     id="path897"
     style="fill:#be6363;fill-opacity:1;stroke:#080400;stroke-width:8;stroke-dasharray:64,16,8,16;stroke-miterlimit:4;stroke-dashoffset:0"
     sodipodi:type="star" />
  <path
     inkscape:transform-center-y="3.1086176"
     inkscape:transform-center-x="-0.2297098"
     d="m 342.01503,417.11431 -45.2664,-24.54736 -36.76635,36.0535 -24.80922,-45.12341 -50.42181,10.45274 3.52471,-51.3731 -48.06871,-18.46668 30.73958,-41.3122 -30.45413,-41.52307 48.19484,-18.13496 -3.17057,-51.39618 50.34857,10.8 25.11962,-44.95136 36.51699,36.30603 45.43451,-24.2348 11.09153,50.28516 51.32426,4.17613 -17.85542,48.2991 40.91892,31.26118 -41.1334,30.97842 17.52212,48.42102 -51.35181,3.82231 z"
     inkscape:randomized="0"
     inkscape:rounded="0"
     inkscape:flatsided="false"
     sodipodi:arg2="1.4314426"
     sodipodi:arg1="1.1458433"
     sodipodi:r2="110.45931"
     sodipodi:r1="147.01134"
     sodipodi:cy="283.17844"
     sodipodi:cx="281.40549"
     sodipodi:sides="11"
     id="path899"
     style="fill:#6363be;fill-opacity:1;stroke:#080400;stroke-width:8;stroke-dasharray:64,16,8,16;stroke-miterlimit:4;stroke-dashoffset:0"
     sodipodi:type="star" />
</svg>
