<?xml version="1.0" encoding="UTF-8" standalone="no"?>
<!-- Created with Inkscape (http://www.inkscape.org/) -->

<svg
   xmlns:dc="http://purl.org/dc/elements/1.1/"
   xmlns:cc="http://creativecommons.org/ns#"
   xmlns:rdf="http://www.w3.org/1999/02/22-rdf-syntax-ns#"
   xmlns:svg="http://www.w3.org/2000/svg"
   xmlns="http://www.w3.org/2000/svg"
   xmlns:sodipodi="http://sodipodi.sourceforge.net/DTD/sodipodi-0.dtd"
   xmlns:inkscape="http://www.inkscape.org/namespaces/inkscape"
   width="25.967077mm"
   height="41.166813mm"
   viewBox="0 0 25.967077 41.166813"
   version="1.1"
   id="svg8"
   inkscape:version="0.92.3 (2405546, 2018-03-11)"
   sodipodi:docname="lock.svg">
  <defs
     id="defs2" />
  <sodipodi:namedview
     id="base"
     pagecolor="#ffffff"
     bordercolor="#666666"
     borderopacity="1.0"
     inkscape:pageopacity="0.0"
     inkscape:pageshadow="2"
     inkscape:zoom="2.8"
     inkscape:cx="-11.324139"
     inkscape:cy="48.493827"
     inkscape:document-units="mm"
     inkscape:current-layer="layer1"
     showgrid="false"
     fit-margin-top="0"
     fit-margin-left="0"
     fit-margin-right="0"
     fit-margin-bottom="0"
     inkscape:window-width="1600"
     inkscape:window-height="839"
     inkscape:window-x="0"
     inkscape:window-y="0"
     inkscape:window-maximized="1" />
  <metadata
     id="metadata5">
    <rdf:RDF>
      <cc:Work
         rdf:about="">
        <dc:format>image/svg+xml</dc:format>
        <dc:type
           rdf:resource="http://purl.org/dc/dcmitype/StillImage" />
        <dc:title></dc:title>
      </cc:Work>
    </rdf:RDF>
  </metadata>
  <g
     inkscape:label="Layer 1"
     inkscape:groupmode="layer"
     id="layer1"
     transform="translate(-133.13774,-94.592326)">
    <path
       inkscape:connector-curvature="0"
       id="path85"
       d="m 134.30044,130.82421 c -1.6523,-2.0311 -1.05948,-6.58797 -1.05822,-9.92286 l 0.0697,-8.80078 12.41817,-0.0688 c 9.75908,-0.0541 12.46349,0.003 12.62981,0.26459 0.1164,0.18335 0.21346,4.05999 0.21569,8.61474 0.004,9.12592 -0.258,9.13182 -1.65167,10.47312 -1.39367,1.3413 -5.9937,3.7702 -10.73582,3.84575 -6.01589,-0.0227 -9.40553,-1.52549 -11.88766,-4.40576 z m 14.03252,-4.19964 c 0.0882,-0.0882 -0.14522,-0.98482 -0.51873,-1.99249 -0.61797,-1.66719 -0.642,-1.87312 -0.26698,-2.28751 0.81806,-0.90395 1.01588,-1.88238 0.57038,-2.8212 -0.73785,-1.55489 -2.46636,-1.91134 -3.80529,-0.7847 -1.00276,0.84376 -1.11909,2.29545 -0.27041,3.37438 l 0.54365,0.69113 -0.66007,1.82986 c -0.36304,1.00642 -0.58783,1.9021 -0.49955,1.99038 0.20931,0.20931 4.69771,0.20945 4.907,1.5e-4 z m -11.61273,-16.36193 c -0.0861,-0.22448 -0.10537,-2.28403 -0.0427,-4.57678 0.13253,-4.85065 0.43422,-5.817173 2.50767,-8.033865 2.23063,-2.38472 5.4311,-3.511355 8.21572,-2.892114 3.19367,0.710205 5.52185,2.553353 6.86453,5.434429 0.71581,1.53596 0.73987,1.72924 0.74103,5.95313 l 10e-4,4.36563 -1.69569,0.0799 c -1.17757,0.0555 -1.76246,-0.0254 -1.91418,-0.26458 -0.12016,-0.18945 -0.2203,-2.04583 -0.22253,-4.1253 -0.005,-4.25844 -0.3087,-5.28654 -1.91984,-6.489833 -2.79928,-2.090651 -6.45674,-1.333425 -8.13125,1.683473 -0.59054,1.06394 -0.66793,1.5658 -0.79375,5.14763 l -0.13942,3.96875 -1.65707,0.0789 c -1.29991,0.0619 -1.69083,-0.009 -1.81369,-0.32929 z"
       style="fill:#0a0a0a;stroke-width:0.26458332"
       sodipodi:nodetypes="cccccczccccccccccsccccsscccccccccccc" />
    <path
       inkscape:connector-curvature="0"
       id="path85-8"
       d="m 134.82962,131.35338 c -1.6523,-2.0311 -1.05948,-6.58797 -1.05822,-9.92286 l 0.0697,-8.80078 12.41816,-0.0688 c 9.75909,-0.0541 12.4635,0.003 12.62982,0.26459 0.1164,0.18335 0.21346,4.05999 0.21569,8.61474 0.004,9.12592 -0.258,9.13182 -1.65167,10.47312 -1.39367,1.3413 -5.9937,3.7702 -10.73582,3.84575 -6.01589,-0.0227 -9.40553,-1.52549 -11.88766,-4.40576 z m 14.03252,-4.19964 c 0.0882,-0.0882 -0.14522,-0.98482 -0.51873,-1.99249 -0.61798,-1.66719 -0.642,-1.87312 -0.26698,-2.28751 0.81806,-0.90395 1.01588,-1.88238 0.57037,-2.8212 -0.73784,-1.55489 -2.46635,-1.91134 -3.80528,-0.7847 -1.00276,0.84376 -1.1191,2.29545 -0.27041,3.37438 l 0.54364,0.69113 -0.66007,1.82986 c -0.36303,1.00642 -0.58782,1.9021 -0.49955,1.99038 0.20931,0.20931 4.69772,0.20945 4.90701,1.5e-4 z m -11.61273,-16.36193 c -0.0861,-0.22448 -0.10537,-2.28403 -0.0427,-4.57678 0.13253,-4.85065 0.43422,-5.81717 2.50767,-8.033863 2.23063,-2.38472 5.43109,-3.51136 8.21571,-2.89212 3.19368,0.71021 5.52186,2.55336 6.86454,5.434433 0.71581,1.53596 0.73987,1.72924 0.74103,5.95313 l 0.001,4.36563 -1.69569,0.0799 c -1.17757,0.0555 -1.76246,-0.0254 -1.91418,-0.26458 -0.12017,-0.18945 -0.22031,-2.04583 -0.22254,-4.1253 -0.005,-4.25844 -0.3087,-5.28654 -1.91984,-6.48983 -2.79928,-2.090653 -6.45674,-1.333433 -8.13125,1.68347 -0.59054,1.06394 -0.66793,1.5658 -0.79375,5.14763 l -0.13942,3.96875 -1.65707,0.0789 c -1.29991,0.0619 -1.69083,-0.009 -1.81369,-0.32929 z"
       style="fill:#ffffff;stroke-width:0.26458332"
       sodipodi:nodetypes="cccccczccccccccccsccccsscccccccccccc" />
  </g>
</svg>
