<?xml version="1.0" encoding="UTF-8" standalone="no"?>
<!-- Created with Inkscape (http://www.inkscape.org/) -->

<svg
   xmlns:dc="http://purl.org/dc/elements/1.1/"
   xmlns:cc="http://creativecommons.org/ns#"
   xmlns:rdf="http://www.w3.org/1999/02/22-rdf-syntax-ns#"
   xmlns:svg="http://www.w3.org/2000/svg"
   xmlns="http://www.w3.org/2000/svg"
   xmlns:sodipodi="http://sodipodi.sourceforge.net/DTD/sodipodi-0.dtd"
   xmlns:inkscape="http://www.inkscape.org/namespaces/inkscape"
   width="63.773602mm"
   height="100.81762mm"
   viewBox="0 0 63.773599 100.81762"
   version="1.1"
   id="svg8"
   inkscape:version="0.92.3 (2405546, 2018-03-11)"
   sodipodi:docname="lock.svg">
  <defs
     id="defs2" />
  <sodipodi:namedview
     id="base"
     pagecolor="#ffffff"
     bordercolor="#666666"
     borderopacity="1.0"
     inkscape:pageopacity="0.0"
     inkscape:pageshadow="2"
     inkscape:zoom="0.98994951"
     inkscape:cx="-60.470865"
     inkscape:cy="109.01349"
     inkscape:document-units="mm"
     inkscape:current-layer="layer1"
     showgrid="false"
     fit-margin-top="0"
     fit-margin-left="0"
     fit-margin-right="0"
     fit-margin-bottom="0"
     inkscape:window-width="1600"
     inkscape:window-height="839"
     inkscape:window-x="0"
     inkscape:window-y="0"
     inkscape:window-maximized="1" />
  <metadata
     id="metadata5">
    <rdf:RDF>
      <cc:Work
         rdf:about="">
        <dc:format>image/svg+xml</dc:format>
        <dc:type
           rdf:resource="http://purl.org/dc/dcmitype/StillImage" />
        <dc:title></dc:title>
      </cc:Work>
    </rdf:RDF>
  </metadata>
  <g
     inkscape:label="Layer 1"
     inkscape:groupmode="layer"
     id="layer1"
     transform="translate(-131.96277,-25.527788)">
    <path
       id="path85"
       style="fill:#0a0a0a;stroke-width:0.65112215"
       d="m 141.84693,54.415664 c 0.32465,-11.937044 1.06687,-14.315475 6.17096,-19.770572 5.48965,-5.868728 13.36406,-8.641389 20.2184,-7.11746 7.8583,1.747814 13.58758,6.28371 16.89268,13.373816 1.76132,3.779938 1.82056,4.255644 1.82278,14.650215 l -0.0314,10.910725 c -4.81066,0.02189 -4.9086,0.06608 -9.31765,0.07729 0,0 -0.0739,-5.736296 -0.0805,-10.853719 -0.006,-10.479725 -0.75988,-13.009776 -4.72329,-15.970958 -6.88929,-5.144956 -15.88974,-3.281563 -20.01047,4.142939 -1.45387,2.618234 -1.64539,3.853173 -1.9543,12.668001 l -0.0424,9.766645 c -2.78501,-0.01044 -3.89272,-0.02611 -8.84168,-0.05151 -0.14739,-4.059253 -0.19032,-8.258914 -0.10309,-11.825415 z m -8.29665,15.599847 v 35.887219 c 0.1351,4.45367 0.0669,2.42217 0.14108,4.03903 0.42,9.16056 13.96168,16.4036 30.97847,16.40365 17.01678,-5e-5 31.0411,-7.73889 31.05754,-16.90905 0.004,-2.17382 0.009,-1.33332 0.009,-3.53363 V 70.015511 Z m 31.34951,14.903482 c 2.08619,0.04607 4.02428,1.278157 5.1015,3.549139 1.09724,2.310313 0.60936,4.718561 -1.40302,6.944794 -0.92207,1.019807 -0.86304,1.524392 0.65733,5.629114 0.91939,2.47972 1.49274,4.69025 1.27486,4.90254 -0.51334,0.51372 -11.55965,0.51372 -12.0742,0 -0.21723,-0.21798 0.33484,-2.42134 1.23041,-4.89892 0,0 1.10898,-2.994206 1.22163,-4.435391 0.0562,-0.719116 -0.93741,-1.767332 -0.93741,-1.767332 -2.08603,-2.65661 -1.80103,-6.22849 0.66715,-8.305953 1.33789,-1.126083 2.83436,-1.649514 4.26175,-1.617991 z"
       inkscape:connector-curvature="0" />
    <path
       inkscape:connector-curvature="0"
       id="path85-9"
       style="fill:#ffffff;stroke-width:0.65112215"
       d="m 140.25942,52.828163 c 0.32465,-11.937045 1.06687,-14.315476 6.17096,-19.770573 5.48965,-5.868728 13.36406,-8.641389 20.2184,-7.11746 7.8583,1.747814 13.58758,6.28371 16.89268,13.373816 1.76132,3.779938 1.82056,4.255644 1.82278,14.650216 l -0.0314,10.910724 c -4.81066,0.02188 -4.9086,0.06608 -9.31765,0.07729 0,0 -0.0739,-5.736297 -0.0805,-10.853719 -0.006,-10.479725 -0.75988,-13.009776 -4.72329,-15.970958 -6.88929,-5.144956 -15.88974,-3.281563 -20.01047,4.142939 -1.45387,2.618234 -1.64539,3.853173 -1.9543,12.668002 l -0.0424,9.766644 c -2.78501,-0.01045 -3.89272,-0.02611 -8.84168,-0.05151 -0.14739,-4.059253 -0.19032,-8.258916 -0.10309,-11.825415 z m -8.29665,15.599847 v 35.88721 c 0.1351,4.45367 0.0669,2.42217 0.14108,4.03903 0.42,9.16056 13.96168,16.4036 30.97847,16.40365 17.01678,-5e-5 31.0411,-7.73889 31.05754,-16.90905 0.004,-2.17382 0.009,-1.33332 0.009,-3.53363 V 68.42801 Z m 31.34951,14.903481 c 2.08619,0.04607 4.02428,1.278157 5.1015,3.54914 1.09724,2.310315 0.60936,4.718565 -1.40302,6.944795 -0.92207,1.01981 -0.86304,1.52439 0.65733,5.62911 0.91939,2.479714 1.49274,4.690244 1.27486,4.902534 -0.51334,0.51372 -11.55965,0.51372 -12.0742,0 -0.21723,-0.21798 0.33484,-2.42134 1.23041,-4.898914 0,0 1.10898,-2.9942 1.22163,-4.43539 0.0562,-0.71911 -0.93741,-1.76733 -0.93741,-1.76733 -2.08603,-2.65661 -1.80103,-6.228491 0.66715,-8.305954 1.33789,-1.126083 2.83436,-1.649513 4.26175,-1.617991 z" />
  </g>
</svg>
